<svg xmlns="http://www.w3.org/2000/svg" viewBox="0 0 400 300"><defs>
<linearGradient id="red" x1="0" x2="1"><stop offset="0" stop-color="#9e0f14"/><stop offset=".35" stop-color="#e3262d"/><stop offset=".6" stop-color="#f04a4f"/><stop offset="1" stop-color="#a51218"/></linearGradient>
<linearGradient id="brass" x1="0" x2="1"><stop offset="0" stop-color="#8a6a1c"/><stop offset=".45" stop-color="#e6c35a"/><stop offset="1" stop-color="#8a6a1c"/></linearGradient>
<linearGradient id="steel" x1="0" x2="1"><stop offset="0" stop-color="#7d848c"/><stop offset=".5" stop-color="#e3e7eb"/><stop offset="1" stop-color="#7d848c"/></linearGradient>
<linearGradient id="white" x1="0" x2="1"><stop offset="0" stop-color="#cfd3d8"/><stop offset=".5" stop-color="#ffffff"/><stop offset="1" stop-color="#c3c8ce"/></linearGradient>
<radialGradient id="ball" cx=".35" cy=".35" r=".7"><stop offset="0" stop-color="#ff6b6b"/><stop offset=".6" stop-color="#d4161d"/><stop offset="1" stop-color="#7c0a0e"/></radialGradient>
</defs><ellipse cx="200" cy="272" rx="70" ry="10" fill="#000" opacity=".12"/><rect x="150" y="80" width="100" height="190" rx="46" fill="url(#red)"/><rect x="186" y="52" width="28" height="34" rx="4" fill="#2b2b2b"/><path d="M178 58 h52 l18 -10 v10 l-18 12 h-52z" fill="url(#steel)"/><rect x="192" y="36" width="16" height="18" rx="3" fill="url(#steel)"/><circle cx="222" cy="72" r="9" fill="#fff" stroke="#333" stroke-width="3"/><path d="M222 72 l5 -4" stroke="#c8161d" stroke-width="2"/><path d="M190 70 C120 70 110 140 128 200" fill="none" stroke="#222" stroke-width="8" stroke-linecap="round"/><rect x="121" y="196" width="14" height="22" rx="3" fill="#222"/><rect x="158" y="140" width="84" height="80" rx="8" fill="#f5e7c3"/><text x="200" y="176" font-family="Arial,sans-serif" font-weight="700" font-size="24" text-anchor="middle" fill="#8a5a00">FOAM</text><text x="200" y="202" font-family="Arial,sans-serif" font-size="11" text-anchor="middle" fill="#555">FIRE</text><text x="200" y="214" font-family="Arial,sans-serif" font-size="11" text-anchor="middle" fill="#555">EXTINGUISHER</text><rect x="162" y="96" width="8" height="150" rx="4" fill="#fff" opacity=".25"/></svg>