<svg xmlns="http://www.w3.org/2000/svg" viewBox="0 0 400 300"><defs>
<linearGradient id="red" x1="0" x2="1"><stop offset="0" stop-color="#9e0f14"/><stop offset=".35" stop-color="#e3262d"/><stop offset=".6" stop-color="#f04a4f"/><stop offset="1" stop-color="#a51218"/></linearGradient>
<linearGradient id="brass" x1="0" x2="1"><stop offset="0" stop-color="#8a6a1c"/><stop offset=".45" stop-color="#e6c35a"/><stop offset="1" stop-color="#8a6a1c"/></linearGradient>
<linearGradient id="steel" x1="0" x2="1"><stop offset="0" stop-color="#7d848c"/><stop offset=".5" stop-color="#e3e7eb"/><stop offset="1" stop-color="#7d848c"/></linearGradient>
<linearGradient id="white" x1="0" x2="1"><stop offset="0" stop-color="#cfd3d8"/><stop offset=".5" stop-color="#ffffff"/><stop offset="1" stop-color="#c3c8ce"/></linearGradient>
<radialGradient id="ball" cx=".35" cy=".35" r=".7"><stop offset="0" stop-color="#ff6b6b"/><stop offset=".6" stop-color="#d4161d"/><stop offset="1" stop-color="#7c0a0e"/></radialGradient>
</defs><ellipse cx="200" cy="275" rx="150" ry="10" fill="#000" opacity=".12"/><rect x="60" y="60" width="280" height="14" rx="4" fill="#8f0a0f"/><rect x="70" y="60" width="12" height="210" fill="#8f0a0f"/><rect x="318" y="60" width="12" height="210" fill="#8f0a0f"/><path d="M85 110 h50 l-8 110 q-17 12 -34 0z" fill="url(#red)"/><path d="M85 110 q25 -40 50 0" fill="none" stroke="#333" stroke-width="3"/><text x="110" y="170" font-family="Arial" font-weight="700" font-size="12" text-anchor="middle" fill="#fff">FIRE</text><path d="M145 110 h50 l-8 110 q-17 12 -34 0z" fill="url(#red)"/><path d="M145 110 q25 -40 50 0" fill="none" stroke="#333" stroke-width="3"/><text x="170" y="170" font-family="Arial" font-weight="700" font-size="12" text-anchor="middle" fill="#fff">FIRE</text><path d="M205 110 h50 l-8 110 q-17 12 -34 0z" fill="url(#red)"/><path d="M205 110 q25 -40 50 0" fill="none" stroke="#333" stroke-width="3"/><text x="230" y="170" font-family="Arial" font-weight="700" font-size="12" text-anchor="middle" fill="#fff">FIRE</text><path d="M265 110 h50 l-8 110 q-17 12 -34 0z" fill="url(#red)"/><path d="M265 110 q25 -40 50 0" fill="none" stroke="#333" stroke-width="3"/><text x="290" y="170" font-family="Arial" font-weight="700" font-size="12" text-anchor="middle" fill="#fff">FIRE</text></svg>