<svg xmlns="http://www.w3.org/2000/svg" viewBox="0 0 400 300"><defs>
<linearGradient id="red" x1="0" x2="1"><stop offset="0" stop-color="#9e0f14"/><stop offset=".35" stop-color="#e3262d"/><stop offset=".6" stop-color="#f04a4f"/><stop offset="1" stop-color="#a51218"/></linearGradient>
<linearGradient id="brass" x1="0" x2="1"><stop offset="0" stop-color="#8a6a1c"/><stop offset=".45" stop-color="#e6c35a"/><stop offset="1" stop-color="#8a6a1c"/></linearGradient>
<linearGradient id="steel" x1="0" x2="1"><stop offset="0" stop-color="#7d848c"/><stop offset=".5" stop-color="#e3e7eb"/><stop offset="1" stop-color="#7d848c"/></linearGradient>
<linearGradient id="white" x1="0" x2="1"><stop offset="0" stop-color="#cfd3d8"/><stop offset=".5" stop-color="#ffffff"/><stop offset="1" stop-color="#c3c8ce"/></linearGradient>
<radialGradient id="ball" cx=".35" cy=".35" r=".7"><stop offset="0" stop-color="#ff6b6b"/><stop offset=".6" stop-color="#d4161d"/><stop offset="1" stop-color="#7c0a0e"/></radialGradient>
</defs><ellipse cx="200" cy="240" rx="110" ry="10" fill="#000" opacity=".12"/><ellipse cx="200" cy="190" rx="120" ry="44" fill="#c9ced4"/><ellipse cx="200" cy="175" rx="120" ry="44" fill="url(#white)"/><ellipse cx="200" cy="150" rx="80" ry="30" fill="#eef0f2" stroke="#c9ced4" stroke-width="3"/><rect x="130" y="140" width="8" height="22" rx="3" fill="#b8bec5"/><rect x="146" y="140" width="8" height="22" rx="3" fill="#b8bec5"/><rect x="162" y="140" width="8" height="22" rx="3" fill="#b8bec5"/><rect x="178" y="140" width="8" height="22" rx="3" fill="#b8bec5"/><rect x="194" y="140" width="8" height="22" rx="3" fill="#b8bec5"/><rect x="210" y="140" width="8" height="22" rx="3" fill="#b8bec5"/><rect x="226" y="140" width="8" height="22" rx="3" fill="#b8bec5"/><rect x="242" y="140" width="8" height="22" rx="3" fill="#b8bec5"/><rect x="258" y="140" width="8" height="22" rx="3" fill="#b8bec5"/><circle cx="275" cy="190" r="6" fill="#e3262d"/></svg>